<svg width="153" height="32" viewBox="0 0 153 32" fill="none" xmlns="http://www.w3.org/2000/svg">
<path d="M6.10863 9.99997H15.1292V11.7238H8.14197V15.0709H14.8113V16.7863H8.14197V20.2831H15.3979V21.9986H6.10863V9.99997ZM17.0966 9.99997H25.8914V10.9126L19.4395 20.2846H25.816V22H16.6026V21.0374L23.0791 11.7235H17.0966V9.99997ZM0 32H32V0H0V32Z" fill="white"/>
<path d="M25.8165 20.2846H19.4397L25.8916 10.9111V10H17.0963V11.7238H23.0786L16.6021 21.0379V22.0001H25.8165V20.2846Z" fill="#13126A"/>
<path d="M15.3982 20.2846H8.14271V16.7878H14.8113V15.0714H8.14271V11.7238H15.1302V10H6.10938V22.0001H15.3982V20.2846Z" fill="#13126A"/>
<path d="M41.7527 16.9234H47.2935V14.6293H41.7527V10.1526H47.718V7.84668H39.0326V23.8959H48.0761V21.6021H41.7527V16.9234Z" fill="white"/>
<path d="M57.3319 12.1559L55.2618 15.8379C55.1719 16.01 55.0803 16.178 54.9872 16.342C54.8944 16.5052 54.8103 16.6732 54.7353 16.8454H54.6794C54.6127 16.6888 54.54 16.5287 54.4615 16.3639C54.3829 16.1992 54.2955 16.0285 54.1987 15.8493L52.1947 12.1554H49.1059L52.8884 18.0986L48.9045 23.8959H51.9711L54.0305 20.3599C54.1645 20.136 54.2707 19.9436 54.3492 19.7827C54.4277 19.6218 54.4892 19.497 54.5339 19.4082H54.5898C54.6871 19.6101 54.7785 19.7907 54.8639 19.9499C54.9498 20.1112 55.0267 20.2538 55.0939 20.3814L57.1193 23.8954H60.1975L56.3471 17.9752L60.2532 12.1559H57.3319Z" fill="white"/>
<path d="M68.0765 11.8767C67.2832 11.8525 66.4983 12.0449 65.8062 12.4334C65.1141 12.8219 64.541 13.3916 64.1485 14.0814H64.1039V12.1559H61.4399V29.168H64.1039V22.3406H64.1485C64.5046 22.9148 65.0014 23.3886 65.5918 23.7171C66.1923 24.0311 66.8622 24.1889 67.5397 24.1759C69.173 24.1759 70.473 23.5849 71.4396 22.4029C72.4063 21.2209 72.8895 19.6481 72.8893 17.6846C72.8893 15.9093 72.4677 14.4974 71.6246 13.449C70.7814 12.4006 69.5987 11.8763 68.0765 11.8767ZM69.3078 20.9084C69.045 21.2805 68.6933 21.5809 68.2847 21.7823C67.8761 21.9836 67.4235 22.0795 66.9684 22.0611C66.5752 22.0728 66.1842 21.9976 65.8234 21.8409C65.4626 21.6842 65.1409 21.4498 64.8811 21.1544C64.332 20.5275 64.0422 19.7152 64.0704 18.8824V17.5839C64.0316 16.6448 64.3401 15.7243 64.937 14.9982C65.2179 14.6687 65.5697 14.407 65.966 14.2325C66.3623 14.0581 66.793 13.9754 67.2257 13.9908C67.6348 13.9697 68.0432 14.0453 68.4176 14.2117C68.792 14.3781 69.1219 14.6304 69.3804 14.9482C69.8912 15.5862 70.1467 16.4981 70.147 17.6841C70.147 19.0641 69.8673 20.1386 69.3078 20.9074" fill="white"/>
<path d="M79.6838 11.8759C78.9242 11.8538 78.169 11.998 77.4711 12.2986C76.7732 12.5992 76.1495 13.0488 75.6437 13.616C74.592 14.7767 74.0662 16.2969 74.0662 18.1766C74.0729 20.072 74.5841 21.5457 75.5996 22.5979C76.6152 23.6501 78.0326 24.1761 79.8517 24.1759C80.6936 24.1845 81.5318 24.0638 82.337 23.8179C83.1374 23.555 83.8923 23.1698 84.5749 22.676L83.3885 21.0086C82.8754 21.3802 82.3072 21.6691 81.7046 21.8646C81.2259 22.0254 80.7259 22.1141 80.2211 22.1278C79.1391 22.1278 78.3018 21.8367 77.7093 21.2546C77.1168 20.6724 76.7939 19.8253 76.7405 18.7132H84.7537V17.561C84.7537 15.7477 84.3041 14.3469 83.405 13.3584C82.5058 12.3699 81.2653 11.8757 79.6835 11.8757M76.7516 16.8786C76.8245 16.0499 77.1664 15.2677 77.7251 14.6512C77.9715 14.385 78.2713 14.1736 78.6049 14.031C78.9385 13.8883 79.2984 13.8176 79.6611 13.8233C80.0107 13.8029 80.3604 13.8618 80.6841 13.9955C81.0078 14.1291 81.2971 14.3342 81.5305 14.5953C81.9704 15.1107 82.1944 15.8718 82.2025 16.8786H76.7516Z" fill="white"/>
<path d="M92.3537 11.954C91.6674 11.9393 90.9965 12.1584 90.4511 12.5753C89.8712 13.0524 89.4498 13.6943 89.2425 14.4161H89.1979V12.1554H86.5231V23.8959H89.1976V18.0981C89.1976 16.9568 89.4532 16.0336 89.9642 15.3287C90.2077 14.9851 90.5336 14.7081 90.9119 14.5231C91.2902 14.3381 91.7089 14.251 92.1296 14.2698C92.2943 14.2683 92.459 14.2794 92.6221 14.303C92.7642 14.3257 92.9095 14.3557 93.0594 14.3929L93.4062 12.0875C93.2448 12.0414 93.0801 12.0076 92.9137 11.9862C92.7281 11.9633 92.5413 11.9522 92.3544 11.953" fill="white"/>
<path d="M100.954 22.0325C100.752 22.0814 100.545 22.1055 100.338 22.1044C100.157 22.1191 99.9744 22.0926 99.8048 22.0268C99.6352 21.9609 99.4826 21.8576 99.3587 21.7244C99.1452 21.4711 99.039 21.0531 99.04 20.4705V14.2267H101.849V12.1559H99.041V8.68592L96.3765 9.49142V12.1559H94.4178V14.2267H96.3765V20.7059C96.3765 21.8479 96.6694 22.7079 97.2551 23.286C97.8409 23.864 98.682 24.1531 99.7785 24.1533C100.18 24.1555 100.581 24.1217 100.977 24.0525C101.343 23.9881 101.7 23.8791 102.04 23.728L101.48 21.8367C101.313 21.9231 101.136 21.9892 100.954 22.0337" fill="white"/>
<path d="M105.373 9.1346H114.17L104.612 23.482V23.8959H116.163V22.6088H106.739L116.353 8.20474V7.84668H105.373V9.1346Z" fill="white"/>
<path d="M123.214 11.8653C121.453 11.8734 120.048 12.4276 119.001 13.5281C117.953 14.6285 117.429 16.156 117.428 18.1106C117.428 19.9232 117.932 21.3892 118.939 22.5085C119.946 23.6278 121.312 24.1876 123.035 24.1877C124.774 24.1877 126.152 23.6206 127.171 22.4864C128.189 21.3521 128.698 19.8637 128.697 18.021C128.697 16.0956 128.209 14.5885 127.231 13.4997C126.254 12.411 124.915 11.8662 123.214 11.8653ZM126.209 21.6799C125.489 22.5533 124.458 22.99 123.114 22.99C121.794 22.99 120.748 22.5478 119.975 21.6634C119.203 20.779 118.816 19.5946 118.817 18.1101C118.817 16.5282 119.207 15.2895 119.987 14.3941C120.767 13.4988 121.817 13.0512 123.137 13.0515C124.465 13.0515 125.489 13.4804 126.209 14.3382C126.929 15.196 127.289 16.4273 127.289 18.0321C127.289 19.5917 126.929 20.808 126.209 21.6809" fill="white"/>
<path d="M136.231 11.8653C135.419 11.8458 134.617 12.0511 133.915 12.4586C133.222 12.8919 132.658 13.502 132.28 14.2259H132.236V12.1559H130.881V23.8959H132.236V17.1579C132.2 16.0862 132.567 15.04 133.265 14.2259C133.585 13.848 133.985 13.5463 134.436 13.343C134.887 13.1398 135.378 13.0401 135.873 13.0513C136.851 13.0513 137.586 13.3888 138.078 14.0639C138.57 14.739 138.816 15.7518 138.817 17.1025V23.8959H140.16V16.7333C140.16 15.1666 139.825 13.9635 139.153 13.1239C138.481 12.2844 137.507 11.8648 136.231 11.8653Z" fill="white"/>
<path d="M152.057 17.5612C152.057 15.7933 151.656 14.4017 150.855 13.3865C150.053 12.3712 148.909 11.8642 147.424 11.8653C146.694 11.8441 145.969 11.9899 145.303 12.2914C144.638 12.593 144.051 13.0424 143.586 13.6054C142.601 14.7661 142.112 16.2416 142.119 18.0321C142.119 20.106 142.617 21.6505 143.613 22.6654C144.609 23.6803 145.894 24.1876 147.468 24.1873C148.224 24.1962 148.977 24.0827 149.696 23.8514C150.407 23.6063 151.075 23.2513 151.676 22.7994L150.994 21.8259C150.486 22.2085 149.921 22.5086 149.319 22.7151C148.772 22.8966 148.2 22.9893 147.623 22.9897C146.385 22.9897 145.395 22.5979 144.653 21.8143C143.91 21.0307 143.528 19.8256 143.506 18.199H152.056L152.057 17.5612ZM143.553 17.0352C143.709 15.7746 144.128 14.7952 144.811 14.0972C145.144 13.7544 145.544 13.4845 145.986 13.3044C146.428 13.1243 146.903 13.0381 147.38 13.0511C147.83 13.0303 148.279 13.1139 148.692 13.2954C149.104 13.4768 149.469 13.7512 149.758 14.0972C150.337 14.7952 150.641 15.7746 150.669 17.0352H143.553Z" fill="white"/>
</svg>
